<svg width="146" height="26" viewBox="0 0 146 26" fill="none" xmlns="http://www.w3.org/2000/svg">
<path d="M43 0.323608L45.8236 9.01368L45.846 9.08278H45.9187H55.056L47.6637 14.4535L47.605 14.4962L47.6274 14.5653L50.451 23.2554L43.0588 17.8847L43 17.842L42.9412 17.8847L35.549 23.2554L38.3726 14.5653L38.395 14.4962L38.3363 14.4535L30.944 9.08278H40.0813H40.154L40.1764 9.01368L43 0.323608Z" fill="#FFFB00" stroke="black" stroke-width="0.2"/>
<path d="M13 0.323608L15.8236 9.01368L15.846 9.08278H15.9187H25.056L17.6637 14.4535L17.605 14.4962L17.6274 14.5653L20.451 23.2554L13.0588 17.8847L13 17.842L12.9412 17.8847L5.549 23.2554L8.37258 14.5653L8.39503 14.4962L8.33625 14.4535L0.944035 9.08278H10.0813H10.154L10.1764 9.01368L13 0.323608Z" fill="#FFFB00" stroke="black" stroke-width="0.2"/>
<path d="M73 0.323608L75.8236 9.01368L75.846 9.08278H75.9187H85.056L77.6637 14.4535L77.605 14.4962L77.6274 14.5653L80.451 23.2554L73.0588 17.8847L73 17.842L72.9412 17.8847L65.549 23.2554L68.3726 14.5653L68.395 14.4962L68.3363 14.4535L60.944 9.08278H70.0813H70.154L70.1764 9.01368L73 0.323608Z" fill="url(#paint0_linear_2186_3039)" stroke="black" stroke-width="0.2"/>
<path d="M103 0.323608L105.824 9.01368L105.846 9.08278H105.919H115.056L107.664 14.4535L107.605 14.4962L107.627 14.5653L110.451 23.2554L103.059 17.8847L103 17.842L102.941 17.8847L95.549 23.2554L98.3726 14.5653L98.395 14.4962L98.3363 14.4535L90.944 9.08278H100.081H100.154L100.176 9.01368L103 0.323608Z" stroke="black" stroke-width="0.2"/>
<path d="M133 0.323608L135.824 9.01368L135.846 9.08278H135.919H145.056L137.664 14.4535L137.605 14.4962L137.627 14.5653L140.451 23.2554L133.059 17.8847L133 17.842L132.941 17.8847L125.549 23.2554L128.373 14.5653L128.395 14.4962L128.336 14.4535L120.944 9.08278H130.081H130.154L130.176 9.01368L133 0.323608Z" stroke="black" stroke-width="0.2"/>
<defs>
<linearGradient id="paint0_linear_2186_3039" x1="75" y1="14" x2="73" y2="14" gradientUnits="userSpaceOnUse">
<stop offset="0.642465" stop-color="#FF0080" stop-opacity="0"/>
<stop offset="0.9999" stop-color="#FFFB00"/>
<stop offset="1" stop-color="#FFFB00"/>
</linearGradient>
</defs>
</svg>
