<svg width="61" height="61" viewBox="0 0 61 61" fill="none" xmlns="http://www.w3.org/2000/svg">
<path d="M30 0.0144043L36.7354 20.7439H58.5317L40.8981 33.5554L47.6336 54.2849L30 41.4734L12.3664 54.2849L19.1019 33.5554L1.4683 20.7439H23.2646L30 0.0144043Z" fill="#D9D9D9"/>
<path d="M30.001 0L39.0009 20.7516L35.148 26.2325L30.393 31.9702L30.3664 21.1791L30.3404 10.3881L30.001 0Z" fill="#FFFB00"/>
<path d="M59.2897 20.6108L41.5 34L47.6712 54.3611L39.1663 42.1428C39.1663 42.1428 30.8399 32.1397 30.3349 32.1528C29.83 32.1659 32.5499 26.1553 32.5499 26.1553L32.5632 22.6094C32.5632 22.6094 37.5574 21.0983 37.7895 20.8863C38.0216 20.6744 49.5079 20.7392 49.5079 20.7392L59.2897 20.6108Z" fill="#FFFB00"/>
</svg>
