<svg width="498" height="91" viewBox="0 0 498 91" fill="none" xmlns="http://www.w3.org/2000/svg">
<path d="M146.5 0.82742L156.396 31.6794L156.418 31.7488H156.491H188.517L162.606 50.8193L162.548 50.8619L162.57 50.9304L172.467 81.785L146.559 62.7171L146.5 62.6735L146.441 62.7171L120.533 81.785L130.43 50.9304L130.452 50.8619L130.394 50.8193L104.483 31.7488H136.509H136.582L136.604 31.6794L146.5 0.82742Z" stroke="black" stroke-width="0.2"/>
<path d="M248.5 0.82742L258.396 31.6794L258.418 31.7488H258.491H290.517L264.606 50.8193L264.548 50.8619L264.57 50.9304L274.467 81.785L248.559 62.7171L248.5 62.6735L248.441 62.7171L222.533 81.785L232.43 50.9304L232.452 50.8619L232.394 50.8193L206.483 31.7488H238.509H238.582L238.604 31.6794L248.5 0.82742Z" stroke="black" stroke-width="0.2"/>
<path d="M351.5 0.82742L361.396 31.6794L361.418 31.7488H361.491H393.517L367.606 50.8193L367.548 50.8619L367.57 50.9304L377.467 81.785L351.559 62.7171L351.5 62.6735L351.441 62.7171L325.533 81.785L335.43 50.9304L335.452 50.8619L335.394 50.8193L309.483 31.7488H341.509H341.582L341.604 31.6794L351.5 0.82742Z" stroke="black" stroke-width="0.2"/>
<path d="M453.5 0.82742L463.396 31.6794L463.418 31.7488H463.491H495.517L469.606 50.8193L469.548 50.8619L469.57 50.9304L479.467 81.785L453.559 62.7171L453.5 62.6735L453.441 62.7171L427.533 81.785L437.43 50.9304L437.452 50.8619L437.394 50.8193L411.483 31.7488H443.509H443.582L443.604 31.6794L453.5 0.82742Z" stroke="black" stroke-width="0.2"/>
<path d="M44.5 0.82742L54.3956 31.6794L54.4179 31.7488H54.4909H86.5174L60.6063 50.8193L60.5484 50.8619L60.5704 50.9304L70.4669 81.785L44.5593 62.7171L44.5 62.6735L44.4407 62.7171L18.5332 81.785L28.4297 50.9304L28.4516 50.8619L28.3937 50.8193L2.48256 31.7488H34.5091H34.5821L34.6044 31.6794L44.5 0.82742Z" stroke="black" stroke-width="0.2"/>
</svg>
